<svg xmlns="http://www.w3.org/2000/svg" width="1200" height="340" viewBox="0 0 1200 340" role="img" aria-label="AI Agents - Two agents that choose their own tools, and prove it in the log.">
<defs>
<linearGradient id="bg" x1="0" y1="0" x2="1" y2="1"><stop stop-color="#0d0a1c"/><stop offset="1" stop-color="#0a1622"/></linearGradient>
<linearGradient id="edge" x1="0" y1="0" x2="1" y2="0"><stop stop-color="#c084fc"/><stop offset=".55" stop-color="#34d399"/><stop offset="1" stop-color="#94a3b8"/></linearGradient>
<linearGradient id="scan" x1="0" y1="0" x2="1" y2="0"><stop stop-color="#fff" stop-opacity="0"/><stop offset=".5" stop-color="#c084fc" stop-opacity=".09"/><stop offset="1" stop-color="#fff" stop-opacity="0"/></linearGradient>
<filter id="glow" x="-60%" y="-60%" width="220%" height="220%"><feGaussianBlur stdDeviation="4" result="b"/><feMerge><feMergeNode in="b"/><feMergeNode in="SourceGraphic"/></feMerge></filter>
<clipPath id="frame"><rect x="1" y="1" width="1198" height="338" rx="18"/></clipPath>

</defs>
<rect x="1" y="1" width="1198" height="338" rx="18" fill="url(#bg)" stroke="#1e2b3d" stroke-width="2"/>
<g clip-path="url(#frame)"><rect x="-280" y="1" width="200" height="338" fill="url(#scan)" transform="skewX(-15)"><animate attributeName="x" values="-280;1400" dur="9s" repeatCount="indefinite"/></rect></g>
<rect x="2" y="2" width="1196" height="336" rx="17" fill="none" stroke="url(#edge)" stroke-width="1.5" stroke-dasharray="60 40" opacity=".55"><animate attributeName="stroke-dashoffset" values="0;-400" dur="11s" repeatCount="indefinite"/></rect>
<text x="60" y="88" fill="#c084fc" font-family="Consolas,monospace" font-size="13" font-weight="700" letter-spacing="3">AGENTS / TOOL CALLING</text>
<path d="M60 104H1140" stroke="#20304a"/>
<path d="M60 104H1140" stroke="url(#edge)" stroke-width="2" stroke-dasharray="140 940"><animate attributeName="stroke-dashoffset" values="140;-1080" dur="7s" repeatCount="indefinite"/></path>
<circle cy="104" r="3.5" fill="#c084fc" filter="url(#glow)"><animate attributeName="cx" values="60;1140;60" dur="7s" repeatCount="indefinite"/></circle>
<text x="60" y="168" fill="#f8fafc" font-family="Segoe UI,Arial,sans-serif" font-size="46" font-weight="800">AI Agents</text>
<text x="60" y="204" fill="#94a3b8" font-family="Segoe UI,Inter,Arial,sans-serif" font-size="17">Two agents that choose their own tools, and prove it in the log.</text>
<g><rect x="60" y="236" width="168" height="40" rx="9" fill="#ffffff" fill-opacity=".05" stroke="#c084fc" stroke-opacity=".55"/><rect x="67" y="245" width="3" height="22" rx="1.5" fill="#c084fc"><animate attributeName="opacity" values=".3;1;.3" dur="2.6s" begin="0s" repeatCount="indefinite"/></rect><text x="150" y="262" fill="#cbd5e1" font-family="Segoe UI,Arial,sans-serif" font-size="12.5" font-weight="700" text-anchor="middle">LANGCHAIN</text></g><g><rect x="244" y="236" width="168" height="40" rx="9" fill="#ffffff" fill-opacity=".05" stroke="#34d399" stroke-opacity=".55"/><rect x="251" y="245" width="3" height="22" rx="1.5" fill="#34d399"><animate attributeName="opacity" values=".3;1;.3" dur="2.6s" begin="0.4s" repeatCount="indefinite"/></rect><text x="334" y="262" fill="#cbd5e1" font-family="Segoe UI,Arial,sans-serif" font-size="12.5" font-weight="700" text-anchor="middle">TOOL CALLING</text></g><g><rect x="428" y="236" width="168" height="40" rx="9" fill="#ffffff" fill-opacity=".05" stroke="#c084fc" stroke-opacity=".55"/><rect x="435" y="245" width="3" height="22" rx="1.5" fill="#c084fc"><animate attributeName="opacity" values=".3;1;.3" dur="2.6s" begin="0.8s" repeatCount="indefinite"/></rect><text x="518" y="262" fill="#cbd5e1" font-family="Segoe UI,Arial,sans-serif" font-size="12.5" font-weight="700" text-anchor="middle">ZOD SCHEMAS</text></g><g><rect x="612" y="236" width="168" height="40" rx="9" fill="#ffffff" fill-opacity=".05" stroke="#34d399" stroke-opacity=".55"/><rect x="619" y="245" width="3" height="22" rx="1.5" fill="#34d399"><animate attributeName="opacity" values=".3;1;.3" dur="2.6s" begin="1.2000000000000002s" repeatCount="indefinite"/></rect><text x="702" y="262" fill="#cbd5e1" font-family="Segoe UI,Arial,sans-serif" font-size="12.5" font-weight="700" text-anchor="middle">OPENAI</text></g>
<g><rect x="804" y="70" width="68" height="68" rx="16" fill="#ffffff" fill-opacity=".035" stroke="#c084fc" stroke-opacity=".3"><animate attributeName="stroke-opacity" values=".18;.6;.18" dur="3.4s" begin="0s" repeatCount="indefinite"/></rect><g transform="translate(822.00 88.00) scale(1.3333)"><path d="M1.125 0C.502 0 0 .502 0 1.125v21.75C0 23.498.502 24 1.125 24h21.75c.623 0 1.125-.502 1.125-1.125V1.125C24 .502 23.498 0 22.875 0zm17.363 9.75c.612 0 1.154.037 1.627.111a6.38 6.38 0 0 1 1.306.34v2.458a3.95 3.95 0 0 0-.643-.361 5.093 5.093 0 0 0-.717-.26 5.453 5.453 0 0 0-1.426-.2c-.3 0-.573.028-.819.086a2.1 2.1 0 0 0-.623.242c-.17.104-.3.229-.393.374a.888.888 0 0 0-.14.49c0 .196.053.373.156.529.104.156.252.304.443.444s.423.276.696.41c.273.135.582.274.926.416.47.197.892.407 1.266.628.374.222.695.473.963.753.268.279.472.598.614.957.142.359.214.776.214 1.253 0 .657-.125 1.21-.373 1.656a3.033 3.033 0 0 1-1.012 1.085 4.38 4.38 0 0 1-1.487.596c-.566.12-1.163.18-1.79.18a9.916 9.916 0 0 1-1.84-.164 5.544 5.544 0 0 1-1.512-.493v-2.63a5.033 5.033 0 0 0 3.237 1.2c.333 0 .624-.03.872-.09.249-.06.456-.144.623-.25.166-.108.29-.234.373-.38a1.023 1.023 0 0 0-.074-1.089 2.12 2.12 0 0 0-.537-.5 5.597 5.597 0 0 0-.807-.444 27.72 27.72 0 0 0-1.007-.436c-.918-.383-1.602-.852-2.053-1.405-.45-.553-.676-1.222-.676-2.005 0-.614.123-1.141.369-1.582.246-.441.58-.804 1.004-1.089a4.494 4.494 0 0 1 1.47-.629 7.536 7.536 0 0 1 1.77-.201zm-15.113.188h9.563v2.166H9.506v9.646H6.789v-9.646H3.375z" fill="#3178C6"/></g></g><g><rect x="896" y="70" width="68" height="68" rx="16" fill="#ffffff" fill-opacity=".035" stroke="#c084fc" stroke-opacity=".3"><animate attributeName="stroke-opacity" values=".18;.6;.18" dur="3.4s" begin="0.3s" repeatCount="indefinite"/></rect><g transform="translate(914.00 88.00) scale(1.3333)"><path d="M11.998,24c-0.321,0-0.641-0.084-0.922-0.247l-2.936-1.737c-0.438-0.245-0.224-0.332-0.08-0.383 c0.585-0.203,0.703-0.25,1.328-0.604c0.065-0.037,0.151-0.023,0.218,0.017l2.256,1.339c0.082,0.045,0.197,0.045,0.272,0l8.795-5.076 c0.082-0.047,0.134-0.141,0.134-0.238V6.921c0-0.099-0.053-0.192-0.137-0.242l-8.791-5.072c-0.081-0.047-0.189-0.047-0.271,0 L3.075,6.68C2.99,6.729,2.936,6.825,2.936,6.921v10.15c0,0.097,0.054,0.189,0.139,0.235l2.409,1.392 c1.307,0.654,2.108-0.116,2.108-0.89V7.787c0-0.142,0.114-0.253,0.256-0.253h1.115c0.139,0,0.255,0.112,0.255,0.253v10.021 c0,1.745-0.95,2.745-2.604,2.745c-0.508,0-0.909,0-2.026-0.551L2.28,18.675c-0.57-0.329-0.922-0.945-0.922-1.604V6.921 c0-0.659,0.353-1.275,0.922-1.603l8.795-5.082c0.557-0.315,1.296-0.315,1.848,0l8.794,5.082c0.57,0.329,0.924,0.944,0.924,1.603 v10.15c0,0.659-0.354,1.273-0.924,1.604l-8.794,5.078C12.643,23.916,12.324,24,11.998,24z M19.099,13.993 c0-1.9-1.284-2.406-3.987-2.763c-2.731-0.361-3.009-0.548-3.009-1.187c0-0.528,0.235-1.233,2.258-1.233 c1.807,0,2.473,0.389,2.747,1.607c0.024,0.115,0.129,0.199,0.247,0.199h1.141c0.071,0,0.138-0.031,0.186-0.081 c0.048-0.054,0.074-0.123,0.067-0.196c-0.177-2.098-1.571-3.076-4.388-3.076c-2.508,0-4.004,1.058-4.004,2.833 c0,1.925,1.488,2.457,3.895,2.695c2.88,0.282,3.103,0.703,3.103,1.269c0,0.983-0.789,1.402-2.642,1.402 c-2.327,0-2.839-0.584-3.011-1.742c-0.02-0.124-0.126-0.215-0.253-0.215h-1.137c-0.141,0-0.254,0.112-0.254,0.253 c0,1.482,0.806,3.248,4.655,3.248C17.501,17.007,19.099,15.91,19.099,13.993z" fill="#5FA04E"/></g></g><g><rect x="988" y="70" width="68" height="68" rx="16" fill="#ffffff" fill-opacity=".035" stroke="#c084fc" stroke-opacity=".3"><animate attributeName="stroke-opacity" values=".18;.6;.18" dur="3.4s" begin="0.6s" repeatCount="indefinite"/></rect><g transform="translate(1006.01 88.00) scale(1.3333)"><path d="M13.796 0a6.93 6.93 0 0 0-4.91 2.019L5.451 5.455l3.273 3.27 3.432-3.432a2.284 2.284 0 0 1 3.277 0 2.28 2.28 0 0 1 0 3.275L12 12.001l3.273 3.273 3.433-3.435c2.692-2.692 2.692-7.127 0-9.82A6.92 6.92 0 0 0 13.796 0m-5.07 8.728-3.433 3.434c-2.692 2.693-2.692 7.126 0 9.819A6.92 6.92 0 0 0 10.203 24a6.93 6.93 0 0 0 4.911-2.02l3.432-3.432-3.271-3.272-3.433 3.433a2.284 2.284 0 0 1-3.277 0 2.28 2.28 0 0 1 0-3.276L12 12z" fill="#FFFFFF"/></g></g><g><rect x="1080" y="70" width="68" height="68" rx="16" fill="#ffffff" fill-opacity=".035" stroke="#c084fc" stroke-opacity=".3"><animate attributeName="stroke-opacity" values=".18;.6;.18" dur="3.4s" begin="0.8999999999999999s" repeatCount="indefinite"/></rect><g transform="translate(1098.01 88.00) scale(1.3333)"><path d="M22.2819 9.8211a5.9847 5.9847 0 0 0-.5157-4.9108 6.0462 6.0462 0 0 0-6.5098-2.9A6.0651 6.0651 0 0 0 4.9807 4.1818a5.9847 5.9847 0 0 0-3.9977 2.9 6.0462 6.0462 0 0 0 .7427 7.0966 5.98 5.98 0 0 0 .511 4.9107 6.051 6.051 0 0 0 6.5146 2.9001A5.9847 5.9847 0 0 0 13.2599 24a6.0557 6.0557 0 0 0 5.7718-4.2058 5.9894 5.9894 0 0 0 3.9977-2.9001 6.0557 6.0557 0 0 0-.7475-7.0729zm-9.022 12.6081a4.4755 4.4755 0 0 1-2.8764-1.0408l.1419-.0804 4.7783-2.7582a.7948.7948 0 0 0 .3927-.6813v-6.7369l2.02 1.1686a.071.071 0 0 1 .038.052v5.5826a4.504 4.504 0 0 1-4.4945 4.4944zm-9.6607-4.1254a4.4708 4.4708 0 0 1-.5346-3.0137l.142.0852 4.783 2.7582a.7712.7712 0 0 0 .7806 0l5.8428-3.3685v2.3324a.0804.0804 0 0 1-.0332.0615L9.74 19.9502a4.4992 4.4992 0 0 1-6.1408-1.6464zM2.3408 7.8956a4.485 4.485 0 0 1 2.3655-1.9728V11.6a.7664.7664 0 0 0 .3879.6765l5.8144 3.3543-2.0201 1.1685a.0757.0757 0 0 1-.071 0l-4.8303-2.7865A4.504 4.504 0 0 1 2.3408 7.872zm16.5963 3.8558L13.1038 8.364 15.1192 7.2a.0757.0757 0 0 1 .071 0l4.8303 2.7913a4.4944 4.4944 0 0 1-.6765 8.1042v-5.6772a.79.79 0 0 0-.407-.667zm2.0107-3.0231l-.142-.0852-4.7735-2.7818a.7759.7759 0 0 0-.7854 0L9.409 9.2297V6.8974a.0662.0662 0 0 1 .0284-.0615l4.8303-2.7866a4.4992 4.4992 0 0 1 6.6802 4.66zM8.3065 12.863l-2.02-1.1638a.0804.0804 0 0 1-.038-.0567V6.0742a4.4992 4.4992 0 0 1 7.3757-3.4537l-.142.0805L8.704 5.459a.7948.7948 0 0 0-.3927.6813zm1.0976-2.3654l2.602-1.4998 2.6069 1.4998v2.9994l-2.5974 1.4997-2.6067-1.4997Z" fill="#FFFFFF"/></g></g><g><rect x="896" y="162" width="68" height="68" rx="16" fill="#ffffff" fill-opacity=".035" stroke="#c084fc" stroke-opacity=".3"><animate attributeName="stroke-opacity" values=".18;.6;.18" dur="3.4s" begin="1.2s" repeatCount="indefinite"/></rect><g transform="translate(910.60 176.60) scale(1.6170)"><path d="M2.584 3.582a2.247 2.247 0 0 1 2.112-1.479h14.617c.948 0 1.794.595 2.115 1.487l2.44 6.777a2.248 2.248 0 0 1-.624 2.443l-9.61 8.52a2.247 2.247 0 0 1-2.963.018L.776 12.773a2.248 2.248 0 0 1-.64-2.467Zm12.038 4.887-9.11 5.537 5.74 5.007c.456.399 1.139.396 1.593-.006l5.643-5.001H14.4l6.239-3.957c.488-.328.69-.947.491-1.5l-1.24-3.446a1.535 1.535 0 0 0-1.456-1.015H5.545a1.535 1.535 0 0 0-1.431 1.01l-1.228 3.37z" fill="#6C8FE0"/></g></g><g><rect x="988" y="162" width="68" height="68" rx="16" fill="#ffffff" fill-opacity=".035" stroke="#c084fc" stroke-opacity=".3"><animate attributeName="stroke-opacity" values=".18;.6;.18" dur="3.4s" begin="1.5s" repeatCount="indefinite"/></rect><g transform="translate(1006.00 180.00) scale(1.3333)"><path d="M1.763 0C.786 0 0 .786 0 1.763v20.474C0 23.214.786 24 1.763 24h20.474c.977 0 1.763-.786 1.763-1.763V1.763C24 .786 23.214 0 22.237 0zM5.13 5.323l13.837.019-.009 13.836h-3.464l.01-10.382h-3.456L12.04 19.17H5.113z" fill="#CB3837"/></g></g>
</svg>
